<?xml version="1.0" standalone="no"?>
<!DOCTYPE svg PUBLIC "-//W3C//DTD SVG 20010904//EN"
 "http://www.w3.org/TR/2001/REC-SVG-20010904/DTD/svg10.dtd">
<svg version="1.0" xmlns="http://www.w3.org/2000/svg"
 width="500.000000pt" height="500.000000pt" viewBox="0 0 500.000000 500.000000"
 preserveAspectRatio="xMidYMid meet">

<g transform="translate(0.000000,500.000000) scale(0.100000,-0.100000)"
fill="#000000" stroke="none">
<path d="M2405 4210 c-180 -28 -350 -177 -427 -376 -19 -48 -23 -78 -23 -164
0 -99 2 -109 33 -172 26 -53 52 -85 125 -151 51 -46 178 -163 282 -258 105
-96 276 -250 380 -344 103 -93 238 -215 298 -270 359 -327 418 -370 572 -423
72 -24 94 -27 225 -27 143 0 146 0 225 34 318 137 395 603 136 833 -95 85
-238 121 -391 100 -121 -17 -216 -71 -350 -197 -114 -108 -162 -145 -184 -145
-22 0 -179 124 -184 145 -3 14 161 174 268 261 196 159 337 227 509 244 143
15 231 0 356 -60 261 -126 422 -358 451 -650 19 -197 -69 -425 -231 -594 -92
-97 -172 -154 -287 -204 -262 -114 -525 -69 -818 140 -222 159 -372 289 -730
633 -462 445 -600 568 -785 705 -175 129 -262 173 -420 214 -178 47 -401 32
-575 -36 -223 -88 -400 -241 -532 -462 -74 -122 -105 -217 -127 -391 -10 -79
-9 -105 8 -215 40 -249 128 -426 296 -596 137 -138 299 -228 480 -265 167 -35
410 -20 589 36 159 50 396 181 568 313 66 51 72 50 143 -13 48 -43 49 -45 30
-59 -75 -55 -111 -87 -144 -131 -137 -178 -179 -417 -102 -578 65 -137 171
-232 309 -278 94 -31 233 -32 320 -1 97 34 153 65 212 119 139 125 190 300
140 482 -40 143 -98 222 -287 392 -76 68 -156 140 -178 160 -83 75 -411 368
-513 458 -59 51 -147 131 -197 176 -182 166 -221 199 -290 243 -90 59 -187
100 -281 118 -97 18 -133 18 -213 -2 -149 -37 -258 -131 -336 -290 -48 -98
-49 -100 -49 -200 -1 -99 0 -102 42 -186 74 -151 212 -257 362 -278 78 -11
189 -1 275 24 59 18 158 75 225 130 149 122 160 129 179 120 29 -14 171 -133
171 -144 0 -11 -191 -158 -295 -226 -297 -194 -571 -244 -854 -158 -264 81
-429 243 -496 489 -25 92 -30 309 -11 427 36 220 193 425 412 540 120 63 183
80 330 85 119 5 142 3 230 -20 119 -31 189 -61 271 -119 33 -24 240 -200 459
-393 219 -192 434 -381 478 -420 45 -38 142 -123 217 -190 75 -66 202 -178
284 -250 81 -71 153 -135 159 -141 37 -35 139 -102 207 -136 124 -62 245 -88
408 -88 298 0 541 106 753 328 91 95 148 177 200 288 63 134 81 218 82 369 1
168 -14 232 -99 430 -28 67 -120 196 -187 265 -113 117 -280 217 -424 255
-129 34 -231 40 -360 22 -262 -38 -384 -101 -674 -352 -51 -44 -108 -91 -126
-104 l-34 -24 -83 79 c-45 43 -83 85 -85 92 -2 7 22 40 53 75 260 285 283 557
66 790 -113 122 -290 190 -436 167z m177 -90 c80 -24 139 -74 172 -143 76
-160 20 -352 -155 -528 -47 -48 -96 -90 -108 -94 -16 -5 -33 1 -60 19 -125 87
-234 221 -271 332 -33 97 -26 213 15 280 80 129 246 184 407 134z m-1372
-1350 c38 -11 98 -41 144 -71 85 -57 236 -196 236 -217 0 -20 -116 -137 -190
-192 -251 -184 -510 -170 -595 34 -64 152 5 370 137 437 80 41 149 43 268 9z
m2922 -46 c52 -36 84 -97 99 -189 16 -100 1 -169 -51 -228 -130 -147 -396
-114 -594 73 l-69 66 18 34 c31 61 164 181 252 228 129 68 263 74 345 16z
m-1507 -1149 c185 -131 270 -300 236 -466 -38 -183 -237 -291 -431 -233 -94
28 -142 69 -190 163 -17 35 -22 61 -22 120 1 83 16 136 62 216 50 88 222 234
275 235 11 0 43 -16 70 -35z"/>
</g>
</svg>
