<svg version="1.1" id="Layer_1" xmlns="http://www.w3.org/2000/svg" xmlns:xlink="http://www.w3.org/1999/xlink" x="0px" y="0px"
	 width="100%" viewBox="0 0 1080 1080" enable-background="new 0 0 1080 1080" xml:space="preserve">
<path fill="#000000" opacity="1.000000" stroke="none" 
	d="
M608.000000,1081.000000 
	C405.356659,1081.000000 203.213318,1081.000000 1.034993,1081.000000 
	C1.034993,721.064880 1.034993,361.129730 1.034993,1.097306 
	C360.893585,1.097306 720.787170,1.097306 1080.840332,1.097306 
	C1080.840332,360.999939 1080.840332,720.999939 1080.840332,1081.000000 
	C923.462646,1081.000000 765.981323,1081.000000 608.000000,1081.000000 
M559.968628,585.948914 
	C559.968628,585.948914 559.886414,585.866089 559.256897,586.066284 
	C557.136475,589.361572 555.016052,592.656799 552.988831,595.974243 
	C552.988831,595.974243 552.925476,595.902466 552.371155,596.064880 
	C552.036865,596.720703 551.702576,597.376526 551.000916,598.313721 
	C551.000916,598.313721 550.910950,598.767822 550.377258,599.007812 
	C550.078186,599.683899 549.779053,600.359985 549.071472,601.374207 
	C549.033325,601.546814 548.995117,601.719421 548.331177,602.115112 
	C546.849548,604.398438 545.367920,606.681763 543.431091,609.128662 
	C543.159180,609.340271 543.011169,609.617981 542.361694,610.173218 
	C539.994324,613.792114 537.626953,617.411011 534.937561,621.261353 
	C534.937561,621.261353 534.869873,621.652100 534.245605,621.930420 
	C530.435181,627.240601 526.624695,632.550781 522.952393,637.965820 
	C522.952393,637.965820 522.853333,637.823425 522.246704,638.079773 
	C520.350586,640.595520 518.098694,642.932678 516.708252,645.702332 
	C516.011902,647.089478 516.170105,650.061340 517.165161,650.956299 
	C524.183044,657.268555 531.518921,663.227234 539.065857,669.875549 
	C543.914246,673.086853 548.583984,676.616150 553.640015,679.458130 
	C587.197693,698.320618 623.506104,706.958801 661.773682,707.125488 
	C728.733276,707.417114 795.694946,707.232544 862.655762,707.247009 
	C869.853516,707.248535 877.051331,707.247253 885.350525,707.247253 
	C876.945007,695.932068 869.582642,685.898254 862.088928,675.963562 
	C852.170166,662.814209 842.057434,649.810486 832.208801,636.609314 
	C827.078735,629.732849 821.362488,625.877747 811.918030,625.993958 
	C766.117981,626.557739 720.306946,626.507202 674.502502,626.227844 
	C662.914124,626.157166 651.105408,625.568176 639.802551,623.247131 
	C618.832092,618.941040 600.781189,609.060608 588.267517,590.835022 
	C587.060364,589.076904 585.652405,587.456726 584.191895,585.103333 
	C583.915588,584.746948 583.639282,584.390564 583.478943,583.454468 
	C583.036499,582.829224 582.593994,582.203979 582.150146,580.863464 
	C581.814575,580.257751 581.478943,579.651978 581.224976,578.363647 
	C579.430420,573.315918 577.635925,568.268188 575.442383,562.098145 
	C570.780579,569.241943 566.603821,575.642395 562.033813,582.334229 
	C562.033813,582.334229 561.925903,582.811584 561.320801,583.069153 
	C560.831970,584.021362 560.343140,584.973572 559.968628,585.948914 
M613.730042,400.319092 
	C600.227661,404.944794 586.436646,408.880066 573.296692,414.372833 
	C557.270081,421.072144 542.294250,430.029846 530.145874,442.659698 
	C522.336487,450.778564 515.385864,459.775665 508.518188,468.737671 
	C492.019531,490.267761 475.633636,511.888641 459.508850,533.699585 
	C443.882263,554.836670 428.595673,576.226074 413.268250,597.582458 
	C410.702271,601.157837 409.288696,599.777039 407.449921,597.057800 
	C401.023743,587.554443 394.609436,578.039673 387.987701,568.672668 
	C368.868286,541.626465 349.619629,514.671631 330.478851,487.640442 
	C310.087036,458.842590 289.570831,430.128998 269.577637,401.056274 
	C265.901581,395.710846 261.897278,394.192108 256.004791,394.204498 
	C221.513000,394.277039 187.020813,394.151917 152.528748,394.123718 
	C152.126663,394.123383 151.724258,394.523285 150.659348,395.087341 
	C154.041153,399.809937 157.285217,404.322449 160.511047,408.847931 
	C176.358368,431.080139 192.264359,453.270874 208.028458,475.561981 
	C226.576004,501.788971 244.901337,528.173401 263.500061,554.363892 
	C288.648651,589.777832 313.993866,625.052063 339.195648,660.428406 
	C348.275421,673.173950 357.125305,685.983032 368.951660,696.578247 
	C387.669312,713.347412 415.929932,717.587341 439.215698,705.373169 
	C453.892914,697.674500 464.521698,685.516174 473.988159,672.288696 
	C480.761322,662.824463 487.107513,653.054871 493.874146,643.585815 
	C506.256287,626.258484 518.946655,609.150513 531.256836,591.772827 
	C549.045959,566.660889 566.506592,541.315918 584.339844,516.235657 
	C589.234924,509.351349 594.139709,502.102264 600.460632,496.675049 
	C617.575378,481.980103 638.422424,475.674835 660.520081,475.513916 
	C732.838928,474.987305 805.163269,475.232147 877.485535,475.180725 
	C880.216614,475.178802 882.947754,475.180481 886.944702,475.180481 
	C883.012390,470.083527 880.024109,466.188599 877.013245,462.311218 
	C860.888550,441.545624 844.652222,420.865204 828.720337,399.952789 
	C825.578857,395.829193 822.306335,394.040009 817.063477,394.061676 
	C773.236755,394.242889 729.408691,394.259674 685.581665,394.124542 
	C661.711182,394.050964 637.967773,395.079834 613.730042,400.319092 
z"/>
<path fill="#FDFDFD" opacity="1.000000" stroke="none" 
	d="
M614.139893,400.235046 
	C637.967773,395.079834 661.711182,394.050964 685.581665,394.124542 
	C729.408691,394.259674 773.236755,394.242889 817.063477,394.061676 
	C822.306335,394.040009 825.578857,395.829193 828.720337,399.952789 
	C844.652222,420.865204 860.888550,441.545624 877.013245,462.311218 
	C880.024109,466.188599 883.012390,470.083527 886.944702,475.180481 
	C882.947754,475.180481 880.216614,475.178802 877.485535,475.180725 
	C805.163269,475.232147 732.838928,474.987305 660.520081,475.513916 
	C638.422424,475.674835 617.575378,481.980103 600.460632,496.675049 
	C594.139709,502.102264 589.234924,509.351349 584.339844,516.235657 
	C566.506592,541.315918 549.045959,566.660889 531.256836,591.772827 
	C518.946655,609.150513 506.256287,626.258484 493.874146,643.585815 
	C487.107513,653.054871 480.761322,662.824463 473.988159,672.288696 
	C464.521698,685.516174 453.892914,697.674500 439.215698,705.373169 
	C415.929932,717.587341 387.669312,713.347412 368.951660,696.578247 
	C357.125305,685.983032 348.275421,673.173950 339.195648,660.428406 
	C313.993866,625.052063 288.648651,589.777832 263.500061,554.363892 
	C244.901337,528.173401 226.576004,501.788971 208.028458,475.561981 
	C192.264359,453.270874 176.358368,431.080139 160.511047,408.847931 
	C157.285217,404.322449 154.041153,399.809937 150.659348,395.087341 
	C151.724258,394.523285 152.126663,394.123383 152.528748,394.123718 
	C187.020813,394.151917 221.513000,394.277039 256.004791,394.204498 
	C261.897278,394.192108 265.901581,395.710846 269.577637,401.056274 
	C289.570831,430.128998 310.087036,458.842590 330.478851,487.640442 
	C349.619629,514.671631 368.868286,541.626465 387.987701,568.672668 
	C394.609436,578.039673 401.023743,587.554443 407.449921,597.057800 
	C409.288696,599.777039 410.702271,601.157837 413.268250,597.582458 
	C428.595673,576.226074 443.882263,554.836670 459.508850,533.699585 
	C475.633636,511.888641 492.019531,490.267761 508.518188,468.737671 
	C515.385864,459.775665 522.336487,450.778564 530.145874,442.659698 
	C542.294250,430.029846 557.270081,421.072144 573.296692,414.372833 
	C586.436646,408.880066 600.227661,404.944794 614.139893,400.235046 
z"/>
<path fill="#289ACF" opacity="1.000000" stroke="none" 
	d="
M584.337646,585.772522 
	C585.652405,587.456726 587.060364,589.076904 588.267517,590.835022 
	C600.781189,609.060608 618.832092,618.941040 639.802551,623.247131 
	C651.105408,625.568176 662.914124,626.157166 674.502502,626.227844 
	C720.306946,626.507202 766.117981,626.557739 811.918030,625.993958 
	C821.362488,625.877747 827.078735,629.732849 832.208801,636.609314 
	C842.057434,649.810486 852.170166,662.814209 862.088928,675.963562 
	C869.582642,685.898254 876.945007,695.932068 885.350525,707.247253 
	C877.051331,707.247253 869.853516,707.248535 862.655762,707.247009 
	C795.694946,707.232544 728.733276,707.417114 661.773682,707.125488 
	C623.506104,706.958801 587.197693,698.320618 553.640015,679.458130 
	C548.583984,676.616150 543.914246,673.086853 539.004028,669.469604 
	C538.942261,669.063660 539.131042,668.828552 539.482300,668.892639 
	C548.692566,673.643921 557.338623,678.805786 566.464050,682.899231 
	C578.111755,688.123962 589.981689,692.976135 602.074524,697.040894 
	C609.686707,699.599487 617.839905,700.694519 625.828552,701.947754 
	C634.309631,703.278076 642.880127,704.854126 651.416809,704.885071 
	C717.507996,705.124329 783.600403,705.015747 849.692444,705.011963 
	C851.190247,705.011841 852.771423,705.247559 854.144104,704.823914 
	C854.679260,704.658813 854.745300,702.973450 855.281799,701.708130 
	C856.987610,701.143555 858.448608,700.900452 859.883545,700.550720 
	C866.369995,698.969543 866.996704,697.465393 863.903931,691.716492 
	C862.757324,689.585022 861.964111,687.263550 860.964722,684.628235 
	C860.605530,679.234924 858.479858,675.017822 855.512390,671.089050 
	C852.921875,667.659180 850.641602,663.993652 848.024231,660.585815 
	C843.853333,655.155212 839.136353,650.107300 835.332031,644.439880 
	C828.300537,633.965027 819.409729,627.589600 806.208435,627.920593 
	C784.119446,628.474426 762.020508,628.873474 739.925537,628.883423 
	C718.828674,628.892944 697.730408,628.384460 676.635071,627.979004 
	C667.350708,627.800598 658.052429,627.573364 648.798706,626.867188 
	C643.411072,626.455933 637.972839,625.484619 632.789856,623.969971 
	C627.951965,622.556152 623.590698,619.351257 618.721619,618.236023 
	C607.145386,615.584656 599.610962,607.589172 592.342896,599.315674 
	C588.920349,595.419739 586.598083,590.557251 583.912964,586.035767 
	C584.048584,585.938721 584.337646,585.772522 584.337646,585.772522 
M872.592285,704.274048 
	C873.319031,702.157166 874.045715,700.040283 874.965332,697.361389 
	C867.932556,694.655945 869.236877,704.112305 864.075317,703.459717 
	C864.267151,703.896973 864.459045,704.334167 864.650879,704.771423 
	C867.076416,704.771423 869.501953,704.771423 872.592285,704.274048 
z"/>
<path fill="#21A2DE" opacity="1.000000" stroke="none" 
	d="
M542.987122,609.961792 
	C543.011169,609.617981 543.159180,609.340271 543.983765,608.933228 
	C546.009949,606.455872 547.483459,604.173950 548.956970,601.892029 
	C548.995117,601.719421 549.033325,601.546814 549.565186,601.118164 
	C550.342896,600.164001 550.626953,599.465881 550.910950,598.767822 
	C550.910950,598.767822 551.000916,598.313721 551.477051,598.104248 
	C552.277222,597.230713 552.601379,596.566589 552.925537,595.902466 
	C552.925476,595.902466 552.988831,595.974243 553.266785,595.852722 
	C555.658630,592.442871 557.772522,589.154480 559.886475,585.866089 
	C559.886414,585.866089 559.968628,585.948914 560.241150,585.834045 
	C560.984375,584.750000 561.455139,583.780762 561.925903,582.811584 
	C561.925903,582.811584 562.033813,582.334229 562.548828,582.124695 
	C568.314392,576.068726 574.438049,575.724426 581.143372,579.046265 
	C581.478943,579.651978 581.814575,580.257751 582.110962,581.535034 
	C582.502197,582.815735 582.932617,583.424988 583.362976,584.034180 
	C583.639282,584.390564 583.915588,584.746948 584.264771,585.437927 
	C584.337646,585.772522 584.048584,585.938721 583.576721,586.074402 
	C582.730896,587.474182 582.356873,588.738342 581.631042,589.963379 
	C578.575317,588.767212 575.647766,586.288513 573.209717,586.701355 
	C565.979370,587.925659 560.906250,593.007629 557.098572,598.976013 
	C548.399963,612.610779 539.578125,626.198364 531.643005,640.276672 
	C527.117676,648.305420 526.725037,647.994080 532.574707,655.165527 
	C533.680847,656.521667 534.210754,658.347961 534.999268,660.306396 
	C534.627258,661.448792 534.262573,662.242004 533.598267,662.884460 
	C529.465271,658.693787 525.632019,654.653870 522.320862,651.164307 
	C521.218262,648.645630 520.335510,646.629089 519.644409,645.050415 
	C520.771118,642.512878 521.812195,640.168152 522.853333,637.823425 
	C522.853333,637.823425 522.952393,637.965820 523.245544,637.928833 
	C527.315735,632.478638 531.092773,627.065369 534.869873,621.652100 
	C534.869873,621.652100 534.937561,621.261353 535.427612,621.092041 
	C538.274170,617.269104 540.630615,613.615417 542.987122,609.961792 
z"/>
<path fill="#289ACF" opacity="1.000000" stroke="none" 
	d="
M581.184204,578.704956 
	C574.438049,575.724426 568.314392,576.068726 562.745483,581.979004 
	C566.603821,575.642395 570.780579,569.241943 575.442383,562.098145 
	C577.635925,568.268188 579.430420,573.315918 581.184204,578.704956 
z"/>
<path fill="#289ACF" opacity="1.000000" stroke="none" 
	d="
M522.550049,637.951599 
	C521.812195,640.168152 520.771118,642.512878 519.644409,645.050415 
	C520.335510,646.629089 521.218262,648.645630 522.320862,651.164307 
	C525.632019,654.653870 529.465271,658.693787 533.764526,663.168762 
	C535.864014,665.345459 537.497498,667.086975 539.131042,668.828552 
	C539.131042,668.828552 538.942261,669.063660 538.847778,669.181274 
	C531.518921,663.227234 524.183044,657.268555 517.165161,650.956299 
	C516.170105,650.061340 516.011902,647.089478 516.708252,645.702332 
	C518.098694,642.932678 520.350586,640.595520 522.550049,637.951599 
z"/>
<path fill="#289ACF" opacity="1.000000" stroke="none" 
	d="
M534.557739,621.791260 
	C531.092773,627.065369 527.315735,632.478638 523.176453,637.876465 
	C526.624695,632.550781 530.435181,627.240601 534.557739,621.791260 
z"/>
<path fill="#289ACF" opacity="1.000000" stroke="none" 
	d="
M559.571655,585.966187 
	C557.772522,589.154480 555.658630,592.442871 553.220215,595.841675 
	C555.016052,592.656799 557.136475,589.361572 559.571655,585.966187 
z"/>
<path fill="#289ACF" opacity="1.000000" stroke="none" 
	d="
M542.674438,610.067505 
	C540.630615,613.615417 538.274170,617.269104 535.588623,620.976318 
	C537.626953,617.411011 539.994324,613.792114 542.674438,610.067505 
z"/>
<path fill="#289ACF" opacity="1.000000" stroke="none" 
	d="
M548.644043,602.003540 
	C547.483459,604.173950 546.009949,606.455872 544.211304,608.851440 
	C545.367920,606.681763 546.849548,604.398438 548.644043,602.003540 
z"/>
<path fill="#289ACF" opacity="1.000000" stroke="none" 
	d="
M561.623352,582.940369 
	C561.455139,583.780762 560.984375,584.750000 560.183960,585.822510 
	C560.343140,584.973572 560.831970,584.021362 561.623352,582.940369 
z"/>
<path fill="#289ACF" opacity="1.000000" stroke="none" 
	d="
M583.420959,583.744324 
	C582.932617,583.424988 582.502197,582.815735 582.111694,581.892639 
	C582.593994,582.203979 583.036499,582.829224 583.420959,583.744324 
z"/>
<path fill="#289ACF" opacity="1.000000" stroke="none" 
	d="
M552.648315,595.983643 
	C552.601379,596.566589 552.277222,597.230713 551.660706,597.963562 
	C551.702576,597.376526 552.036865,596.720703 552.648315,595.983643 
z"/>
<path fill="#289ACF" opacity="1.000000" stroke="none" 
	d="
M550.644104,598.887817 
	C550.626953,599.465881 550.342896,600.164001 549.769409,600.949097 
	C549.779053,600.359985 550.078186,599.683899 550.644104,598.887817 
z"/>
<path fill="#11ADF0" opacity="1.000000" stroke="none" 
	d="
M539.482300,668.892639 
	C537.497498,667.086975 535.864014,665.345459 534.064209,663.319580 
	C534.262573,662.242004 534.627258,661.448792 535.406128,660.320923 
	C538.212646,660.325073 540.605103,660.663757 543.035400,661.351074 
	C544.229858,662.811768 545.205078,664.278381 546.572754,664.977539 
	C554.789612,669.178345 562.969666,673.490051 571.403992,677.217041 
	C583.122803,682.395386 594.714417,688.355652 606.985535,691.659668 
	C621.006042,695.434570 635.645447,697.319275 650.141052,698.797974 
	C662.758972,700.085266 675.549683,699.842834 688.266846,699.955261 
	C706.929871,700.120239 725.595398,699.999390 744.259888,699.999939 
	C758.405579,700.000305 772.552673,700.120117 786.696594,699.960327 
	C797.187683,699.841858 807.674072,699.142822 818.163818,699.109009 
	C826.440674,699.082397 834.719543,699.675049 843.435547,699.995972 
	C847.590698,700.659729 851.307861,701.320068 855.024963,701.980469 
	C854.745300,702.973450 854.679260,704.658813 854.144104,704.823914 
	C852.771423,705.247559 851.190247,705.011841 849.692444,705.011963 
	C783.600403,705.015747 717.507996,705.124329 651.416809,704.885071 
	C642.880127,704.854126 634.309631,703.278076 625.828552,701.947754 
	C617.839905,700.694519 609.686707,699.599487 602.074524,697.040894 
	C589.981689,692.976135 578.111755,688.123962 566.464050,682.899231 
	C557.338623,678.805786 548.692566,673.643921 539.482300,668.892639 
z"/>
<path fill="#11ADF0" opacity="1.000000" stroke="none" 
	d="
M581.982910,590.002441 
	C582.356873,588.738342 582.730896,587.474182 583.441040,586.171387 
	C586.598083,590.557251 588.920349,595.419739 592.342896,599.315674 
	C599.610962,607.589172 607.145386,615.584656 618.721619,618.236023 
	C623.590698,619.351257 627.951965,622.556152 632.789856,623.969971 
	C637.972839,625.484619 643.411072,626.455933 648.798706,626.867188 
	C658.052429,627.573364 667.350708,627.800598 676.635071,627.979004 
	C697.730408,628.384460 718.828674,628.892944 739.925537,628.883423 
	C762.020508,628.873474 784.119446,628.474426 806.208435,627.920593 
	C819.409729,627.589600 828.300537,633.965027 835.332031,644.439880 
	C839.136353,650.107300 843.853333,655.155212 848.024231,660.585815 
	C850.641602,663.993652 852.921875,667.659180 855.512390,671.089050 
	C858.479858,675.017822 860.605530,679.234924 860.625488,684.581787 
	C858.555176,683.622192 856.778992,682.308655 854.951416,680.658081 
	C851.076416,675.232666 847.253662,670.143860 843.429138,665.056274 
	C839.508423,659.840576 835.673035,654.557800 831.644226,649.426941 
	C825.387939,641.459473 819.442688,632.984558 807.387512,633.968384 
	C801.115417,634.480286 794.816101,634.937134 788.530029,634.924683 
	C781.576660,634.910950 774.626465,634.112122 767.671143,634.045166 
	C752.492188,633.898987 737.310852,634.000305 722.130493,633.999939 
	C703.310059,633.999451 684.477417,634.389160 665.675354,633.800476 
	C658.404602,633.572815 651.091431,632.707764 643.732910,630.933289 
	C634.785889,628.775757 626.111694,626.478088 617.498474,623.123291 
	C603.098755,617.514893 589.964355,610.823608 582.989014,595.615601 
	C582.651123,593.488281 582.317017,591.745361 581.982910,590.002441 
z"/>
<path fill="#0E9DDE" opacity="1.000000" stroke="none" 
	d="
M855.002808,680.995117 
	C856.778992,682.308655 858.555176,683.622192 860.670532,684.982178 
	C861.964111,687.263550 862.757324,689.585022 863.903931,691.716492 
	C866.996704,697.465393 866.369995,698.969543 859.883545,700.550720 
	C858.448608,700.900452 856.987610,701.143555 855.281799,701.708069 
	C851.307861,701.320068 847.590698,700.659729 843.431580,699.627686 
	C840.787659,696.530945 838.585754,693.805969 836.777710,691.568359 
	C837.570374,688.277893 838.686218,685.334961 838.903564,682.327087 
	C839.190674,678.353516 840.710510,677.459839 844.388000,678.593750 
	C847.844543,679.659363 851.458252,680.215088 855.002808,680.995117 
z"/>
<path fill="#11ADF0" opacity="1.000000" stroke="none" 
	d="
M872.259888,704.522705 
	C869.501953,704.771423 867.076416,704.771423 864.650879,704.771423 
	C864.459045,704.334167 864.267151,703.896973 864.075317,703.459717 
	C869.236877,704.112305 867.932556,694.655945 874.965332,697.361389 
	C874.045715,700.040283 873.319031,702.157166 872.259888,704.522705 
z"/>
<path fill="#0E9DDE" opacity="1.000000" stroke="none" 
	d="
M581.631042,589.963379 
	C582.317017,591.745361 582.651123,593.488281 582.631592,595.679810 
	C581.634949,597.217041 580.596680,598.245544 580.420471,599.405090 
	C579.797485,603.503174 578.001343,606.531433 573.983643,608.073853 
	C573.276917,608.345215 572.756836,609.124207 572.173462,609.692261 
	C568.172668,613.588135 563.899048,617.249451 560.262390,621.460449 
	C556.861206,625.398865 553.069763,629.545532 551.396545,634.287354 
	C549.478394,639.723450 549.937683,645.957214 548.914062,651.765076 
	C548.255798,655.500000 547.773743,659.734436 542.997559,661.002441 
	C540.605103,660.663757 538.212646,660.325073 535.413330,659.971802 
	C534.210754,658.347961 533.680847,656.521667 532.574707,655.165527 
	C526.725037,647.994080 527.117676,648.305420 531.643005,640.276672 
	C539.578125,626.198364 548.399963,612.610779 557.098572,598.976013 
	C560.906250,593.007629 565.979370,587.925659 573.209717,586.701355 
	C575.647766,586.288513 578.575317,588.767212 581.631042,589.963379 
z"/>
<path fill="#069EE2" opacity="1.000000" stroke="none" 
	d="
M543.035400,661.351074 
	C547.773743,659.734436 548.255798,655.500000 548.914062,651.765076 
	C549.937683,645.957214 549.478394,639.723450 551.396545,634.287354 
	C553.069763,629.545532 556.861206,625.398865 560.262390,621.460449 
	C563.899048,617.249451 568.172668,613.588135 572.173462,609.692261 
	C572.756836,609.124207 573.276917,608.345215 573.983643,608.073853 
	C578.001343,606.531433 579.797485,603.503174 580.420471,599.405090 
	C580.596680,598.245544 581.634949,597.217041 582.635254,596.064209 
	C589.964355,610.823608 603.098755,617.514893 617.498474,623.123291 
	C626.111694,626.478088 634.785889,628.775757 643.732910,630.933289 
	C651.091431,632.707764 658.404602,633.572815 665.675354,633.800476 
	C684.477417,634.389160 703.310059,633.999451 722.130493,633.999939 
	C737.310852,634.000305 752.492188,633.898987 767.671143,634.045166 
	C774.626465,634.112122 781.576660,634.910950 788.530029,634.924683 
	C794.816101,634.937134 801.115417,634.480286 807.387512,633.968384 
	C819.442688,632.984558 825.387939,641.459473 831.644226,649.426941 
	C835.673035,654.557800 839.508423,659.840576 843.429138,665.056274 
	C847.253662,670.143860 851.076416,675.232666 854.951416,680.658081 
	C851.458252,680.215088 847.844543,679.659363 844.388000,678.593750 
	C840.710510,677.459839 839.190674,678.353516 838.903564,682.327087 
	C838.686218,685.334961 837.570374,688.277893 836.777710,691.568359 
	C838.585754,693.805969 840.787659,696.530945 842.993530,699.624329 
	C834.719543,699.675049 826.440674,699.082397 818.163818,699.109009 
	C807.674072,699.142822 797.187683,699.841858 786.696594,699.960327 
	C772.552673,700.120117 758.405579,700.000305 744.259888,699.999939 
	C725.595398,699.999390 706.929871,700.120239 688.266846,699.955261 
	C675.549683,699.842834 662.758972,700.085266 650.141052,698.797974 
	C635.645447,697.319275 621.006042,695.434570 606.985535,691.659668 
	C594.714417,688.355652 583.122803,682.395386 571.403992,677.217041 
	C562.969666,673.490051 554.789612,669.178345 546.572754,664.977539 
	C545.205078,664.278381 544.229858,662.811768 543.035400,661.351074 
z"/>
</svg>