<svg xmlns="http://www.w3.org/2000/svg" width="1080" height="1080" xmlns:v="https://vecta.io/nano">
<path d="M0 0h1080v1080H0V0z"/>
<path d="M331 449l24.907-.674 11.568-.307c3.729-.142 7.454-.219 11.185-.253 1.416-.024 2.831-.07 4.246-.141 10.729-.514 10.729-.514 14.656 2.621 3.398 3.545 5.91 7.565 8.439 11.754l3.813 5.688 1.941 2.969c2.714 4.095 5.609 8.057 8.496 12.031l27.534 38.864 14.251 20.249 6.273 8.93 1.65 2.355 3.122 4.472 1.423 2.029 1.244 1.783c1.3 1.694 2.711 3.156 4.252 4.631l.637-1.988c1.874-4.139 4.48-7.558 7.176-11.199l3.539-4.836 1.833-2.495 6.867-9.514c5.018-6.992 10.131-13.888 15.413-20.682l8.66-11.473c3.905-5.224 7.839-10.41 11.973-15.457 1.337-1.655 2.633-3.344 3.898-5.055 15.887-20.902 42.233-30.189 67.381-33.672 9.699-1.19 19.446-1.164 29.205-1.203l6.59-.045 13.677-.047 17.497-.147 13.55-.063 6.455-.062 8.991-.018 2.662-.073c3.813.071 6.098.274 9.076 2.78 1.781 2.012 3.375 4.051 4.918 6.249l2.012 2.66 1.676 2.402c3.303 4.617 6.758 9.077 10.313 13.5l1.551 1.933 6.996 8.579 2.203 2.676 1.922 2.297C748 493 748 493 748 496l-2.079.002-50.288.13-24.32.063-21.219.065-11.216.026c-29.081-.352-29.081-.352-53.808 13.534-6.025 6.363-10.721 13.782-15.604 21.024l-7.404 10.593-1.513 2.137-3.038 4.289-4.48 6.355-17.022 23.82-14.077 19.974c-19.558 28.163-19.558 28.163-35.674 31.671-10.406 1.458-20.198.579-28.82-5.746-8.566-7.211-14.979-15.864-21.188-25.097l-7-10.028-1.527-2.162L416.5 571l-21.906-30.879-18.842-26.547-20.123-28.418-3.504-5.031-1.742-2.503c-4.901-7.006-9.963-13.886-15.116-20.708l-1.696-2.266-1.507-1.995C331 451 331 451 331 449z" fill="#fcfcfc"/>
<path d="M571 545l3 1c.703 1.68.703 1.68 1.25 3.875 3.437 11.031 9.843 18.337 19.75 24.125 9.557 4.851 19.46 6.331 30.08 6.128l5.916-.057 3.12-.041 16.514-.085 20.942-.168 16.996-.09 6.45-.08c16.367-.356 16.367-.356 20.752 2.578 3.254 3.141 5.223 6.773 7.228 10.815.847 1.177 1.722 2.335 2.645 3.453l13.793 18.047 1.54 2.032 1.456 1.937 1.283 1.701c1.549 2.209 2.904 4.512 4.283 6.83l-54.22.155-25.181.071-21.972.056-11.611.035c-31.518.173-61.463-2.986-87.016-23.317l-2.863-2.262c-5.376-4.498-5.376-4.498-7.137-6.738-.287-5.111 3.717-8.867 6.75-12.625 4.964-6.311 9.679-12.731 14.188-19.375l1.571-2.315L571 545z" fill="#089fe3"/>
<path d="M571 545l3 1c.703 1.68.703 1.68 1.25 3.875 3.437 11.031 9.843 18.337 19.75 24.125 9.557 4.851 19.46 6.331 30.08 6.128l5.916-.057 3.12-.041 16.514-.085 20.942-.168 16.996-.09 6.45-.08c16.367-.356 16.367-.356 20.752 2.578 3.254 3.141 5.223 6.773 7.228 10.815.847 1.177 1.722 2.335 2.645 3.453l13.793 18.047 1.54 2.032 1.456 1.937 1.283 1.701c1.549 2.209 2.904 4.512 4.283 6.83l-54.22.155-25.181.071-21.972.056-11.611.035c-35.595.195-66.632-4.91-94.016-29.317 2.989-1.494 4.85-.919 8 0 1.375 2.563 1.375 2.563 2 5l3.313.375C558 604 558 604 561 606v3l8 1v2l3.063.813c3.811 1.081 7.326 2.566 10.938 4.188v3h15v2l3.211-.105 4.164-.082 2.117-.076c2.031-.029 2.031-.029 5.508.264l2 3c2.235.447 2.235.447 4.872.361l3.119.012 3.435-.033 3.607.001 9.805-.038 10.242-.024 19.401-.064 22.084-.065L737 625c-.447-4.479-.447-4.479-3-8-.125-2.625-.125-2.625 0-5h-2v-3h-2c-1.461-2.647-2-3.894-2-7h-2v2h-2v-2h-2l-.812-2.812c-1.146-3.076-1.922-4.021-4.187-6.187l-.5-2.125L716 589l-3-1v-2l-3.437.063C706 586 706 586 705 585c-1.643-.099-3.291-.13-4.937-.125l-2.715-.008c-2.369-.021-2.369-.021-4.348 1.133-1.45-.299-2.887-.662-4.312-1.062-3.887-.947-6.108-1.016-9.687 1.063v-2l-6.812-.062-3.832-.035c-3.352-.064-3.352-.064-6.355 1.098v-2l-2.263.108-10.112.455-3.562.17-3.398.146-3.142.143C637 584 637 584 635 583v2c-4.462 1.806-7.31 2.117-12 1v-2l-3 .563c-7.767 1.101-14.133-1.129-21-4.562l-3.437-1.437c-3.056-1.34-5.827-2.656-8.562-4.562v-2l-4-1v-2l-3-1-1-5h-2l-.687-2.375c-1.094-2.844-1.094-2.844-3.937-3.937L570 556l-2.312 2.313c-1.417 1.417-2.84 2.828-4.312 4.188-2.373 2.588-3.912 5.641-5.57 8.719l-1.305 2.406-1.219 2.289c-1.254 2.041-2.527 3.47-4.281 5.086l-2.187 2.188L547 585l-3-2 1.293-1.52c9.48-11.473 17.476-24.101 25.707-36.48zm167 75v2l2-1-2-1z" fill="#32a9e7"/>
<path d="M541 597l8 1 2 5 3.313.375C558 604 558 604 561 606v3l8 1v2l3.063.813c3.811 1.081 7.326 2.566 10.938 4.188v3h15v2h15l2 4c-26.655 1.276-51.712-8.761-71.867-25.996L541 598v-1z" fill="#1caeec"/>
<path d="M571 545l3 1c.809 1.785.809 1.785 1.438 4.063 1.395 4.631 3.308 8.662 5.563 12.938h-4l-.687-2.375c-1.094-2.844-1.094-2.844-3.937-3.937L570 556l-2.312 2.313c-1.417 1.417-2.84 2.828-4.312 4.188-2.373 2.588-3.912 5.641-5.57 8.719l-1.305 2.406-1.219 2.289c-1.254 2.041-2.527 3.47-4.281 5.086l-2.187 2.188L547 585l-3-2 1.293-1.52c9.48-11.473 17.476-24.101 25.707-36.48z" fill="#28a2dc"/>
<path d="M616 582h98l-2 4h-6l-1-1-4.937-.125-2.715-.008c-2.369-.021-2.369-.021-4.348 1.133l-4.312-1.062c-3.887-.947-6.108-1.016-9.687 1.063v-2l-6.812-.062-3.832-.035c-3.352-.064-3.352-.064-6.355 1.098v-2l-1.962.108c-14.771.78-29.28.901-44.038-.108v-1z" fill="#1cb8f7"/>
<path d="M742 621c3 1 3 1 6 6H607v-1l43.503-.443 20.207-.205 19.549-.195 7.409-.078c14.82-.167 29.537.015 44.333.921v-5z" fill="#3eb8f2"/>
<path d="M603 581l4.813-.062 2.707-.035C613 581 613 581 616 582l4.449.316 2.568.127 2.67.119 2.705.131L635 583v2c-4.462 1.806-7.31 2.117-12 1v-2l-3 .563c-5.956.844-11.521.006-17-2.562v-1z" fill="#0cacef"/>
<path d="M571 545l3 1c.73 2.066.73 2.066 1.188 4.563l.48 2.504L576 555l-1.863.184-2.449.254-2.426.246c-2.423.269-2.423.269-5.262 1.316 1.383-2.869 2.921-5.56 4.625-8.25l1.352-2.141L571 545z" fill="#34a5d9"/>
<path d="M742 621c3 1 3 1 6 6h-43v-1c12.433-1.143 24.553-.801 37 0v-5z" fill="#3cb6f0"/>
<path d="M591 620h7v2h15l2 4h-12v-2h-6v-2h-6v-2z" fill="#19b1f2"/>
<path d="M582 618l1 2 5.855.781L597 622v2h6v2c-5.589-.609-10.926-1.563-16.375-2.937l-2.152-.514c-5.228-1.305-5.228-1.305-7.473-3.549l5-1z" fill="#27a4da"/>
<path d="M594 574l2.824 1.023c8.339 2.944 16.344 4.979 25.176 5.977v1c-4.955.081-9.866.02-14.812-.312l-2.707-.176c-2.861-.59-4.269-1.647-6.48-3.512-1.318-.696-2.648-1.372-4-2v-2z" fill="#2db0ef"/>
<path d="M684 583h27l1 3h-6l-1-1-4.937-.125-2.715-.008c-2.369-.021-2.369-.021-4.348 1.133l-4.625-.937-2.477-.59L684 584v-1z" fill="#12adf4"/>
<path d="M584 622l23 4v1l-5.375.063-3.023.035C596 627 596 627 594 626l-4.625-.562-2.477-.254L585 625l-1-3z" fill="#091226"/>
<path d="M583 558h1l1 7 2-1 2 1 1 6c-4.223-2.534-6.783-4.566-9-9h2v-4z" fill="#0a0f25"/>
<path d="M646 583h15c-3.342 3.342-7.304 2.989-11.875 3.063L646 586v-3z" fill="#0cafef"/>
<path d="M736 611l4 4 1.813 1.813c1.756 3.236.928 5.688.188 9.188h-1l-.25-3.875c-.212-2.186-.212-2.186-.75-4.125-1.918-1.376-1.918-1.376-4-2l-1-3 1-2z" fill="#3aa6dd"/>
<path d="M742 621c3.736 1.245 4.188 2.634 6 6h-11v-1h5v-5z" fill="#64c2ec"/>
<path d="M571 545l3 1 1 7-7-2 3-6z" fill="#5c9dc6"/><path d="M562 611c5.261-.316 8.446.334 13 3v2h-3v-2l-1.934-.148-2.504-.227-2.496-.211L563 613l-1-2z" fill="#18b3f8"/>
<path d="M541 597l8 1v6l-4-2.937-2.25-1.652L541 598v-1z" fill="#30a4e1"/>
<path d="M590 574h4l1 2 5 2-1 2c-6.75-2.625-6.75-2.625-9-6z" fill="#16aef5"/>
<path d="M586 569c2.884 1.293 4.872 2.659 7 5l-5 1c-2-3-2-3-2-6z" fill="#28a4e8"/>
<path d="M599 576c7.429-.286 7.429-.286 11 2-4.293 1.263-6.878.63-11-1v-1z" fill="#142043"/>
<path d="M739 618c2 2 2 2 2.125 5.125L741 626l-4-1 1-1.812c1.208-2.241 1.208-2.241 1-5.187z" fill="#28b1f5"/>
<path d="M563 613l9 1-1 3c-5.75-1.75-5.75-1.75-8-4z" fill="#2ea2d8"/>
<path d="M734 613l5 5-2 4c-2.294-3.441-3-4.723-3-9z" fill="#20a2e7"/>
<path d="M590 571h5v2h3l1 3c-3.775-1.091-6.47-1.908-9-5z" fill="#0f1b38"/>
</svg>